<mxfile host="app.diagrams.net" modified="2024-05-15T08:45:03.564Z" agent="Mozilla/5.0 (Windows NT 10.0; Win64; x64) AppleWebKit/537.36 (KHTML, like Gecko) Chrome/124.0.0.0 Safari/537.36 Edg/124.0.0.0" etag="lggASn0-xS6mCvDtFWWu" version="24.3.1" type="github">
  <diagram id="C5RBs43oDa-KdzZeNtuy" name="Page-1">
    <mxGraphModel dx="1603" dy="2134" grid="1" gridSize="10" guides="1" tooltips="1" connect="1" arrows="1" fold="1" page="1" pageScale="1" pageWidth="827" pageHeight="1169" math="0" shadow="0">
      <root>
        <mxCell id="WIyWlLk6GJQsqaUBKTNV-0" />
        <mxCell id="WIyWlLk6GJQsqaUBKTNV-1" parent="WIyWlLk6GJQsqaUBKTNV-0" />
        <mxCell id="p-AxQ4LG1LahvSwsqKG5-134" value="" style="edgeStyle=orthogonalEdgeStyle;rounded=0;orthogonalLoop=1;jettySize=auto;html=1;entryX=0.491;entryY=0.183;entryDx=0;entryDy=0;entryPerimeter=0;" parent="WIyWlLk6GJQsqaUBKTNV-1" source="p-AxQ4LG1LahvSwsqKG5-85" edge="1">
          <mxGeometry relative="1" as="geometry">
            <mxPoint x="638.56" y="330.98" as="targetPoint" />
          </mxGeometry>
        </mxCell>
        <mxCell id="p-AxQ4LG1LahvSwsqKG5-137" value="&lt;font style=&quot;font-size: 15px;&quot;&gt;No&lt;/font&gt;" style="edgeLabel;html=1;align=center;verticalAlign=middle;resizable=0;points=[];" parent="p-AxQ4LG1LahvSwsqKG5-134" vertex="1" connectable="0">
          <mxGeometry x="0.1166" y="-1" relative="1" as="geometry">
            <mxPoint x="1" as="offset" />
          </mxGeometry>
        </mxCell>
        <mxCell id="p-AxQ4LG1LahvSwsqKG5-85" value="&#xa;&lt;span style=&quot;color: rgb(0, 0, 0); font-family: Helvetica; font-size: 12px; font-style: normal; font-variant-ligatures: normal; font-variant-caps: normal; font-weight: 400; letter-spacing: normal; orphans: 2; text-align: center; text-indent: 0px; text-transform: none; widows: 2; word-spacing: 0px; -webkit-text-stroke-width: 0px; white-space: normal; background-color: rgb(251, 251, 251); text-decoration-thickness: initial; text-decoration-style: initial; text-decoration-color: initial; display: inline !important; float: none;&quot;&gt;Serial number exists?&lt;/span&gt;&#xa;&#xa;" style="strokeWidth=2;html=1;shape=mxgraph.flowchart.decision;whiteSpace=wrap;" parent="WIyWlLk6GJQsqaUBKTNV-1" vertex="1">
          <mxGeometry x="265" y="240" width="285" height="50" as="geometry" />
        </mxCell>
        <mxCell id="p-AxQ4LG1LahvSwsqKG5-143" style="edgeStyle=orthogonalEdgeStyle;rounded=0;orthogonalLoop=1;jettySize=auto;html=1;exitX=0.5;exitY=1;exitDx=0;exitDy=0;exitPerimeter=0;entryX=0.5;entryY=0;entryDx=0;entryDy=0;" parent="WIyWlLk6GJQsqaUBKTNV-1" source="p-AxQ4LG1LahvSwsqKG5-88" target="p-AxQ4LG1LahvSwsqKG5-100" edge="1">
          <mxGeometry relative="1" as="geometry" />
        </mxCell>
        <mxCell id="p-AxQ4LG1LahvSwsqKG5-88" value="Start" style="strokeWidth=2;html=1;shape=mxgraph.flowchart.start_1;whiteSpace=wrap;fillColor=#f8cecc;strokeColor=#b85450;" parent="WIyWlLk6GJQsqaUBKTNV-1" vertex="1">
          <mxGeometry x="320" y="-70" width="160" height="40" as="geometry" />
        </mxCell>
        <mxCell id="p-AxQ4LG1LahvSwsqKG5-92" value="&#xa;&lt;span style=&quot;color: rgb(0, 0, 0); font-family: Helvetica; font-size: 12px; font-style: normal; font-variant-ligatures: normal; font-variant-caps: normal; font-weight: 400; letter-spacing: normal; orphans: 2; text-align: center; text-indent: 0px; text-transform: none; widows: 2; word-spacing: 0px; -webkit-text-stroke-width: 0px; white-space: normal; background-color: rgb(251, 251, 251); text-decoration-thickness: initial; text-decoration-style: initial; text-decoration-color: initial; display: inline !important; float: none;&quot;&gt;Connect to LEAMS (API)&lt;/span&gt;&#xa;&#xa;" style="rounded=1;whiteSpace=wrap;html=1;absoluteArcSize=1;arcSize=14;strokeWidth=2;" parent="WIyWlLk6GJQsqaUBKTNV-1" vertex="1">
          <mxGeometry x="320" y="170" width="160" height="40" as="geometry" />
        </mxCell>
        <mxCell id="p-AxQ4LG1LahvSwsqKG5-100" value="Scan Asset" style="verticalLabelPosition=middle;verticalAlign=middle;html=1;shape=trapezoid;perimeter=trapezoidPerimeter;whiteSpace=wrap;size=0.23;arcSize=10;flipV=1;labelPosition=center;align=center;" parent="WIyWlLk6GJQsqaUBKTNV-1" vertex="1">
          <mxGeometry x="320" width="160" height="50" as="geometry" />
        </mxCell>
        <mxCell id="p-AxQ4LG1LahvSwsqKG5-145" style="edgeStyle=orthogonalEdgeStyle;rounded=0;orthogonalLoop=1;jettySize=auto;html=1;exitX=0.5;exitY=1;exitDx=0;exitDy=0;exitPerimeter=0;entryX=0.5;entryY=0;entryDx=0;entryDy=0;" parent="WIyWlLk6GJQsqaUBKTNV-1" source="p-AxQ4LG1LahvSwsqKG5-103" target="p-AxQ4LG1LahvSwsqKG5-92" edge="1">
          <mxGeometry relative="1" as="geometry" />
        </mxCell>
        <mxCell id="p-AxQ4LG1LahvSwsqKG5-103" value="Extract Serial Number" style="strokeWidth=2;html=1;shape=mxgraph.flowchart.extract_or_measurement;whiteSpace=wrap;fillColor=#dae8fc;strokeColor=#6c8ebf;" parent="WIyWlLk6GJQsqaUBKTNV-1" vertex="1">
          <mxGeometry x="352.5" y="80" width="95" height="60" as="geometry" />
        </mxCell>
        <mxCell id="p-AxQ4LG1LahvSwsqKG5-128" value="" style="edgeStyle=orthogonalEdgeStyle;rounded=0;orthogonalLoop=1;jettySize=auto;html=1;" parent="WIyWlLk6GJQsqaUBKTNV-1" source="p-AxQ4LG1LahvSwsqKG5-110" target="p-AxQ4LG1LahvSwsqKG5-113" edge="1">
          <mxGeometry relative="1" as="geometry">
            <mxPoint x="480" y="715" as="targetPoint" />
          </mxGeometry>
        </mxCell>
        <mxCell id="p-AxQ4LG1LahvSwsqKG5-129" value="&lt;font style=&quot;font-size: 15px;&quot;&gt;Success&lt;/font&gt;" style="edgeLabel;html=1;align=center;verticalAlign=middle;resizable=0;points=[];" parent="p-AxQ4LG1LahvSwsqKG5-128" vertex="1" connectable="0">
          <mxGeometry x="-0.0272" y="3" relative="1" as="geometry">
            <mxPoint x="1" as="offset" />
          </mxGeometry>
        </mxCell>
        <mxCell id="p-AxQ4LG1LahvSwsqKG5-130" value="" style="edgeStyle=orthogonalEdgeStyle;rounded=0;orthogonalLoop=1;jettySize=auto;html=1;" parent="WIyWlLk6GJQsqaUBKTNV-1" source="p-AxQ4LG1LahvSwsqKG5-110" target="p-AxQ4LG1LahvSwsqKG5-116" edge="1">
          <mxGeometry relative="1" as="geometry">
            <Array as="points">
              <mxPoint x="810" y="640" />
            </Array>
          </mxGeometry>
        </mxCell>
        <mxCell id="6rrZprwtZrgg4ie8aV9F-16" value="&lt;font style=&quot;font-size: 15px;&quot;&gt;Error&lt;/font&gt;" style="edgeLabel;html=1;align=center;verticalAlign=middle;resizable=0;points=[];fontSize=12;" vertex="1" connectable="0" parent="p-AxQ4LG1LahvSwsqKG5-130">
          <mxGeometry x="0.2871" y="5" relative="1" as="geometry">
            <mxPoint as="offset" />
          </mxGeometry>
        </mxCell>
        <mxCell id="p-AxQ4LG1LahvSwsqKG5-110" value="Handle Response" style="strokeWidth=2;html=1;shape=mxgraph.flowchart.decision;whiteSpace=wrap;" parent="WIyWlLk6GJQsqaUBKTNV-1" vertex="1">
          <mxGeometry x="550" y="610" width="190" height="50" as="geometry" />
        </mxCell>
        <mxCell id="p-AxQ4LG1LahvSwsqKG5-113" value="Scan Another Asset?" style="strokeWidth=2;html=1;shape=mxgraph.flowchart.loop_limit;whiteSpace=wrap;fillColor=#dae8fc;strokeColor=#6c8ebf;" parent="WIyWlLk6GJQsqaUBKTNV-1" vertex="1">
          <mxGeometry x="320" y="725" width="160" height="40" as="geometry" />
        </mxCell>
        <mxCell id="p-AxQ4LG1LahvSwsqKG5-132" value="" style="edgeStyle=orthogonalEdgeStyle;rounded=0;orthogonalLoop=1;jettySize=auto;html=1;exitX=0;exitY=0.5;exitDx=0;exitDy=0;" parent="WIyWlLk6GJQsqaUBKTNV-1" target="p-AxQ4LG1LahvSwsqKG5-113" edge="1" source="p-AxQ4LG1LahvSwsqKG5-116">
          <mxGeometry relative="1" as="geometry">
            <mxPoint x="691.7533632286995" y="701.3677130044844" as="sourcePoint" />
            <mxPoint x="480" y="720" as="targetPoint" />
            <Array as="points">
              <mxPoint x="685" y="700" />
              <mxPoint x="400" y="701" />
            </Array>
          </mxGeometry>
        </mxCell>
        <mxCell id="p-AxQ4LG1LahvSwsqKG5-116" value="Error Message &amp;amp; Log" style="shape=parallelogram;html=1;strokeWidth=2;perimeter=parallelogramPerimeter;whiteSpace=wrap;rounded=1;arcSize=12;size=0.23;" parent="WIyWlLk6GJQsqaUBKTNV-1" vertex="1">
          <mxGeometry x="700" y="675" width="160" height="50" as="geometry" />
        </mxCell>
        <mxCell id="p-AxQ4LG1LahvSwsqKG5-126" value="End" style="strokeWidth=2;html=1;shape=mxgraph.flowchart.terminator;whiteSpace=wrap;fillColor=#f8cecc;strokeColor=#b85450;" parent="WIyWlLk6GJQsqaUBKTNV-1" vertex="1">
          <mxGeometry x="315" y="830" width="170" height="40" as="geometry" />
        </mxCell>
        <mxCell id="p-AxQ4LG1LahvSwsqKG5-141" style="edgeStyle=orthogonalEdgeStyle;rounded=0;orthogonalLoop=1;jettySize=auto;html=1;exitX=0.5;exitY=1;exitDx=0;exitDy=0;exitPerimeter=0;entryX=0.5;entryY=0;entryDx=0;entryDy=0;entryPerimeter=0;" parent="WIyWlLk6GJQsqaUBKTNV-1" source="p-AxQ4LG1LahvSwsqKG5-113" target="p-AxQ4LG1LahvSwsqKG5-126" edge="1">
          <mxGeometry relative="1" as="geometry" />
        </mxCell>
        <mxCell id="p-AxQ4LG1LahvSwsqKG5-142" value="&lt;span style=&quot;font-size: 15px;&quot;&gt;No&lt;/span&gt;" style="edgeLabel;html=1;align=center;verticalAlign=middle;resizable=0;points=[];" parent="p-AxQ4LG1LahvSwsqKG5-141" vertex="1" connectable="0">
          <mxGeometry x="-0.0681" y="-2" relative="1" as="geometry">
            <mxPoint as="offset" />
          </mxGeometry>
        </mxCell>
        <mxCell id="p-AxQ4LG1LahvSwsqKG5-144" style="edgeStyle=orthogonalEdgeStyle;rounded=0;orthogonalLoop=1;jettySize=auto;html=1;exitX=0.5;exitY=1;exitDx=0;exitDy=0;entryX=0.5;entryY=0;entryDx=0;entryDy=0;entryPerimeter=0;" parent="WIyWlLk6GJQsqaUBKTNV-1" source="p-AxQ4LG1LahvSwsqKG5-100" target="p-AxQ4LG1LahvSwsqKG5-103" edge="1">
          <mxGeometry relative="1" as="geometry" />
        </mxCell>
        <mxCell id="p-AxQ4LG1LahvSwsqKG5-146" style="edgeStyle=orthogonalEdgeStyle;rounded=0;orthogonalLoop=1;jettySize=auto;html=1;exitX=0.5;exitY=1;exitDx=0;exitDy=0;entryX=0.469;entryY=0.037;entryDx=0;entryDy=0;entryPerimeter=0;" parent="WIyWlLk6GJQsqaUBKTNV-1" source="p-AxQ4LG1LahvSwsqKG5-92" target="p-AxQ4LG1LahvSwsqKG5-85" edge="1">
          <mxGeometry relative="1" as="geometry" />
        </mxCell>
        <mxCell id="6rrZprwtZrgg4ie8aV9F-2" value="" style="edgeStyle=none;curved=1;rounded=0;orthogonalLoop=1;jettySize=auto;html=1;fontSize=12;startSize=8;endSize=8;" edge="1" parent="WIyWlLk6GJQsqaUBKTNV-1" source="6rrZprwtZrgg4ie8aV9F-0" target="6rrZprwtZrgg4ie8aV9F-1">
          <mxGeometry relative="1" as="geometry" />
        </mxCell>
        <mxCell id="6rrZprwtZrgg4ie8aV9F-0" value="Enter Essential Information" style="rounded=1;whiteSpace=wrap;html=1;absoluteArcSize=1;arcSize=14;strokeWidth=2;" vertex="1" parent="WIyWlLk6GJQsqaUBKTNV-1">
          <mxGeometry x="560" y="330" width="160" height="40" as="geometry" />
        </mxCell>
        <mxCell id="6rrZprwtZrgg4ie8aV9F-4" value="" style="edgeStyle=none;curved=1;rounded=0;orthogonalLoop=1;jettySize=auto;html=1;fontSize=12;startSize=8;endSize=8;" edge="1" parent="WIyWlLk6GJQsqaUBKTNV-1" source="6rrZprwtZrgg4ie8aV9F-1" target="6rrZprwtZrgg4ie8aV9F-3">
          <mxGeometry relative="1" as="geometry" />
        </mxCell>
        <mxCell id="6rrZprwtZrgg4ie8aV9F-1" value="Select Model &amp;amp; Status" style="whiteSpace=wrap;html=1;rounded=1;arcSize=14;strokeWidth=2;fillColor=#dae8fc;strokeColor=#6c8ebf;" vertex="1" parent="WIyWlLk6GJQsqaUBKTNV-1">
          <mxGeometry x="560" y="400" width="160" height="40" as="geometry" />
        </mxCell>
        <mxCell id="6rrZprwtZrgg4ie8aV9F-6" value="" style="edgeStyle=none;curved=1;rounded=0;orthogonalLoop=1;jettySize=auto;html=1;fontSize=12;startSize=8;endSize=8;" edge="1" parent="WIyWlLk6GJQsqaUBKTNV-1" source="6rrZprwtZrgg4ie8aV9F-3" target="6rrZprwtZrgg4ie8aV9F-5">
          <mxGeometry relative="1" as="geometry" />
        </mxCell>
        <mxCell id="6rrZprwtZrgg4ie8aV9F-36" value="&lt;span style=&quot;font-size: 15px;&quot;&gt;No&lt;/span&gt;" style="edgeLabel;html=1;align=center;verticalAlign=middle;resizable=0;points=[];fontSize=12;" vertex="1" connectable="0" parent="6rrZprwtZrgg4ie8aV9F-6">
          <mxGeometry x="-0.1617" y="-2" relative="1" as="geometry">
            <mxPoint y="1" as="offset" />
          </mxGeometry>
        </mxCell>
        <mxCell id="6rrZprwtZrgg4ie8aV9F-8" value="" style="edgeStyle=none;curved=1;rounded=0;orthogonalLoop=1;jettySize=auto;html=1;fontSize=12;startSize=8;endSize=8;" edge="1" parent="WIyWlLk6GJQsqaUBKTNV-1" source="6rrZprwtZrgg4ie8aV9F-3" target="6rrZprwtZrgg4ie8aV9F-7">
          <mxGeometry relative="1" as="geometry" />
        </mxCell>
        <mxCell id="6rrZprwtZrgg4ie8aV9F-31" value="&lt;font style=&quot;font-size: 15px;&quot;&gt;yes&lt;/font&gt;" style="edgeLabel;html=1;align=center;verticalAlign=middle;resizable=0;points=[];fontSize=12;" vertex="1" connectable="0" parent="6rrZprwtZrgg4ie8aV9F-8">
          <mxGeometry x="-0.0578" y="-3" relative="1" as="geometry">
            <mxPoint as="offset" />
          </mxGeometry>
        </mxCell>
        <mxCell id="6rrZprwtZrgg4ie8aV9F-3" value="Model Name Exists ?" style="rhombus;whiteSpace=wrap;html=1;rounded=1;arcSize=14;strokeWidth=2;" vertex="1" parent="WIyWlLk6GJQsqaUBKTNV-1">
          <mxGeometry x="540" y="470" width="200" height="50" as="geometry" />
        </mxCell>
        <mxCell id="6rrZprwtZrgg4ie8aV9F-5" value="Send Notification" style="whiteSpace=wrap;html=1;rounded=1;arcSize=14;strokeWidth=2;fillColor=#ffe6cc;strokeColor=#d79b00;" vertex="1" parent="WIyWlLk6GJQsqaUBKTNV-1">
          <mxGeometry x="712" y="550" width="148" height="40" as="geometry" />
        </mxCell>
        <mxCell id="6rrZprwtZrgg4ie8aV9F-7" value="Create New Asset" style="whiteSpace=wrap;html=1;rounded=1;arcSize=14;strokeWidth=2;fillColor=#d5e8d4;strokeColor=#82b366;" vertex="1" parent="WIyWlLk6GJQsqaUBKTNV-1">
          <mxGeometry x="420" y="555" width="147.5" height="35" as="geometry" />
        </mxCell>
        <mxCell id="6rrZprwtZrgg4ie8aV9F-14" value="" style="endArrow=classic;html=1;rounded=0;fontSize=12;startSize=8;endSize=8;curved=1;exitX=0.75;exitY=1;exitDx=0;exitDy=0;entryX=0.261;entryY=0.163;entryDx=0;entryDy=0;entryPerimeter=0;" edge="1" parent="WIyWlLk6GJQsqaUBKTNV-1" source="6rrZprwtZrgg4ie8aV9F-7" target="p-AxQ4LG1LahvSwsqKG5-110">
          <mxGeometry width="50" height="50" relative="1" as="geometry">
            <mxPoint x="610" y="620" as="sourcePoint" />
            <mxPoint x="660" y="570" as="targetPoint" />
          </mxGeometry>
        </mxCell>
        <mxCell id="6rrZprwtZrgg4ie8aV9F-15" value="" style="endArrow=classic;html=1;rounded=0;fontSize=12;startSize=8;endSize=8;curved=1;exitX=0.25;exitY=1;exitDx=0;exitDy=0;entryX=0.724;entryY=0.163;entryDx=0;entryDy=0;entryPerimeter=0;" edge="1" parent="WIyWlLk6GJQsqaUBKTNV-1" source="6rrZprwtZrgg4ie8aV9F-5" target="p-AxQ4LG1LahvSwsqKG5-110">
          <mxGeometry width="50" height="50" relative="1" as="geometry">
            <mxPoint x="610" y="620" as="sourcePoint" />
            <mxPoint x="660" y="570" as="targetPoint" />
          </mxGeometry>
        </mxCell>
        <mxCell id="6rrZprwtZrgg4ie8aV9F-23" value="" style="endArrow=classic;html=1;rounded=0;fontSize=12;startSize=8;endSize=8;curved=1;entryX=0;entryY=0.5;entryDx=0;entryDy=0;" edge="1" parent="WIyWlLk6GJQsqaUBKTNV-1" target="p-AxQ4LG1LahvSwsqKG5-100">
          <mxGeometry width="50" height="50" relative="1" as="geometry">
            <mxPoint x="160" y="25" as="sourcePoint" />
            <mxPoint x="120" y="40" as="targetPoint" />
          </mxGeometry>
        </mxCell>
        <mxCell id="6rrZprwtZrgg4ie8aV9F-25" value="" style="endArrow=none;html=1;rounded=0;fontSize=12;startSize=8;endSize=8;curved=1;exitX=0;exitY=0.5;exitDx=0;exitDy=0;exitPerimeter=0;" edge="1" parent="WIyWlLk6GJQsqaUBKTNV-1" source="p-AxQ4LG1LahvSwsqKG5-113">
          <mxGeometry width="50" height="50" relative="1" as="geometry">
            <mxPoint x="430" y="530" as="sourcePoint" />
            <mxPoint x="160" y="745" as="targetPoint" />
          </mxGeometry>
        </mxCell>
        <mxCell id="6rrZprwtZrgg4ie8aV9F-26" value="" style="endArrow=none;html=1;rounded=0;fontSize=12;startSize=8;endSize=8;curved=1;" edge="1" parent="WIyWlLk6GJQsqaUBKTNV-1">
          <mxGeometry width="50" height="50" relative="1" as="geometry">
            <mxPoint x="160" y="750" as="sourcePoint" />
            <mxPoint x="160" y="30" as="targetPoint" />
          </mxGeometry>
        </mxCell>
        <mxCell id="6rrZprwtZrgg4ie8aV9F-27" value="&lt;b&gt;&lt;font style=&quot;font-size: 15px;&quot;&gt;Yes&lt;/font&gt;&lt;/b&gt;" style="edgeLabel;html=1;align=center;verticalAlign=middle;resizable=0;points=[];fontSize=12;" vertex="1" connectable="0" parent="6rrZprwtZrgg4ie8aV9F-26">
          <mxGeometry x="0.1399" y="4" relative="1" as="geometry">
            <mxPoint y="1" as="offset" />
          </mxGeometry>
        </mxCell>
        <mxCell id="6rrZprwtZrgg4ie8aV9F-38" value="" style="endArrow=none;html=1;rounded=0;fontSize=12;startSize=8;endSize=8;curved=1;entryX=0;entryY=0.5;entryDx=0;entryDy=0;entryPerimeter=0;" edge="1" parent="WIyWlLk6GJQsqaUBKTNV-1" target="p-AxQ4LG1LahvSwsqKG5-85">
          <mxGeometry width="50" height="50" relative="1" as="geometry">
            <mxPoint x="220" y="265" as="sourcePoint" />
            <mxPoint x="440" y="360" as="targetPoint" />
          </mxGeometry>
        </mxCell>
        <mxCell id="6rrZprwtZrgg4ie8aV9F-39" value="" style="endArrow=none;html=1;rounded=0;fontSize=12;startSize=8;endSize=8;curved=1;" edge="1" parent="WIyWlLk6GJQsqaUBKTNV-1">
          <mxGeometry width="50" height="50" relative="1" as="geometry">
            <mxPoint x="220" y="700" as="sourcePoint" />
            <mxPoint x="220" y="260" as="targetPoint" />
          </mxGeometry>
        </mxCell>
        <mxCell id="6rrZprwtZrgg4ie8aV9F-42" value="&lt;b&gt;&lt;font style=&quot;font-size: 15px;&quot;&gt;Yes&lt;/font&gt;&lt;/b&gt;" style="edgeLabel;html=1;align=center;verticalAlign=middle;resizable=0;points=[];fontSize=12;" vertex="1" connectable="0" parent="6rrZprwtZrgg4ie8aV9F-39">
          <mxGeometry x="0.6909" y="3" relative="1" as="geometry">
            <mxPoint as="offset" />
          </mxGeometry>
        </mxCell>
        <mxCell id="6rrZprwtZrgg4ie8aV9F-41" value="" style="endArrow=none;html=1;rounded=0;fontSize=12;startSize=8;endSize=8;curved=1;" edge="1" parent="WIyWlLk6GJQsqaUBKTNV-1">
          <mxGeometry width="50" height="50" relative="1" as="geometry">
            <mxPoint x="220" y="700" as="sourcePoint" />
            <mxPoint x="400" y="700" as="targetPoint" />
          </mxGeometry>
        </mxCell>
      </root>
    </mxGraphModel>
  </diagram>
</mxfile>
